<svg width="60" height="60" viewBox="0 0 60 60" fill="none" xmlns="http://www.w3.org/2000/svg">
<rect width="60" height="60" rx="20" fill="#F1F4FF"/>
<path d="M31.5 38.25H28.5C28.3011 38.25 28.1103 38.329 27.9697 38.4697C27.829 38.6103 27.75 38.8011 27.75 39C27.75 39.1989 27.829 39.3897 27.9697 39.5303C28.1103 39.671 28.3011 39.75 28.5 39.75H31.5C31.6989 39.75 31.8897 39.671 32.0303 39.5303C32.171 39.3897 32.25 39.1989 32.25 39C32.25 38.8011 32.171 38.6103 32.0303 38.4697C31.8897 38.329 31.6989 38.25 31.5 38.25Z" fill="#2E65F3"/>
<path d="M38.5899 31.4866L35.7552 28.085C35.6646 26.9646 35.4126 25.8631 35.007 24.8147C33.9179 21.9823 31.9924 20.1273 30.9415 19.2735C30.6751 19.059 30.3436 18.9416 30.0015 18.9404C29.6594 18.9393 29.3271 19.0546 29.0592 19.2673C27.9946 20.1201 26.0444 21.9738 24.9443 24.8066C24.5252 25.8787 24.2693 27.0076 24.1852 28.1557L21.4094 31.4866C21.2632 31.6632 21.1591 31.8707 21.1051 32.0935C21.051 32.3162 21.0484 32.5484 21.0974 32.7723L22.2565 37.9879C22.3114 38.2367 22.4289 38.4675 22.5978 38.6583C22.7668 38.8491 22.9816 38.9937 23.222 39.0784C23.4623 39.1631 23.7203 39.185 23.9716 39.1422C24.2228 39.0994 24.459 38.9933 24.6577 38.8338L27.2627 36.7499H32.7366L35.3415 38.8338C35.6062 39.0469 35.9358 39.1632 36.2757 39.1635C36.4464 39.1634 36.6159 39.1342 36.7769 39.0773C37.0176 38.9934 37.2328 38.8492 37.4019 38.6585C37.571 38.4678 37.6883 38.2369 37.7428 37.9879L38.9019 32.7724C38.9509 32.5485 38.9483 32.3163 38.8942 32.0935C38.8402 31.8707 38.7361 31.6632 38.5899 31.4866ZM23.7208 37.6625L22.5617 32.4469L24.2423 30.4301C24.4554 32.1824 25.0535 33.9756 26.0367 35.8098L23.7208 37.6625ZM29.9997 28.1249C29.7771 28.1249 29.5596 28.0589 29.3746 27.9353C29.1896 27.8116 29.0454 27.6359 28.9603 27.4304C28.8751 27.2248 28.8529 26.9986 28.8963 26.7804C28.9397 26.5622 29.0468 26.3617 29.2042 26.2044C29.3615 26.047 29.5619 25.9399 29.7802 25.8965C29.9984 25.8531 30.2246 25.8753 30.4302 25.9605C30.6357 26.0456 30.8114 26.1898 30.9351 26.3748C31.0587 26.5598 31.1247 26.7774 31.1247 26.9999C31.1247 27.2982 31.0061 27.5844 30.7951 27.7954C30.5842 28.0063 30.298 28.1249 29.9997 28.1249ZM36.2785 37.6625L33.9582 35.8063C34.9289 33.9593 35.5146 32.1506 35.7154 30.3803L37.4376 32.4469L36.2785 37.6625Z" fill="#2E65F3"/>
</svg>
