<svg width="60" height="61" viewBox="0 0 60 61" fill="none" xmlns="http://www.w3.org/2000/svg">
<rect y="0.5" width="60" height="60" rx="20" fill="#F1F4FF"/>
<path d="M36.8224 23.5522C35.007 21.7546 32.5546 20.7474 29.9998 20.75C29.9665 20.75 29.9332 20.7502 29.8999 20.7505C27.6083 20.7744 25.3983 21.6046 23.6578 23.0955C21.9173 24.5863 20.7574 26.6426 20.3819 28.9034C20.0063 31.1641 20.4389 33.4849 21.6039 35.4585C22.7689 37.4321 24.5917 38.9323 26.7525 39.6958C27.205 39.8553 27.6891 39.904 28.1643 39.8377C28.6395 39.7715 29.0918 39.5922 29.4834 39.315C29.875 39.0378 30.1943 38.6707 30.4147 38.2446C30.6351 37.8184 30.7501 37.3456 30.75 36.8658V36.5C30.7505 36.1023 30.9087 35.7211 31.1899 35.4398C31.4711 35.1586 31.8523 35.0005 32.25 35H36.5822C37.2626 35.0033 37.9237 34.7738 38.4558 34.3497C38.988 33.9256 39.3591 33.3323 39.5076 32.6682C39.6751 31.9295 39.7563 31.1739 39.7497 30.4164C39.7404 29.1354 39.4769 27.8691 38.9744 26.6907C38.4719 25.5124 37.7404 24.4456 36.8224 23.5522ZM26.3407 33.9118C26.148 34.023 25.9266 34.0746 25.7046 34.0601C25.4825 34.0455 25.2698 33.9655 25.0933 33.83C24.9168 33.6946 24.7844 33.5098 24.7128 33.2991C24.6413 33.0884 24.6339 32.8612 24.6915 32.6463C24.7491 32.4314 24.8691 32.2384 25.0364 32.0917C25.2037 31.945 25.4107 31.8512 25.6313 31.8221C25.8519 31.7931 26.0762 31.8301 26.2757 31.9285C26.4753 32.0269 26.6412 32.1823 26.7524 32.375C26.8263 32.5029 26.8742 32.6442 26.8935 32.7907C26.9128 32.9371 26.9031 33.086 26.8648 33.2287C26.8266 33.3714 26.7606 33.5051 26.6707 33.6223C26.5807 33.7396 26.4686 33.8379 26.3407 33.9118ZM26.7524 28.625C26.6412 28.8177 26.4753 28.9731 26.2757 29.0715C26.0762 29.1699 25.8519 29.2069 25.6313 29.1779C25.4107 29.1488 25.2037 29.055 25.0364 28.9083C24.8691 28.7616 24.7491 28.5686 24.6915 28.3537C24.6339 28.1387 24.6413 27.9116 24.7129 27.7009C24.7844 27.4902 24.9168 27.3054 25.0933 27.17C25.2698 27.0345 25.4825 26.9545 25.7046 26.9399C25.9266 26.9253 26.148 26.977 26.3407 27.0882C26.4686 27.1621 26.5807 27.2604 26.6707 27.3776C26.7606 27.4948 26.8266 27.6286 26.8648 27.7713C26.9031 27.914 26.9128 28.0629 26.8935 28.2093C26.8743 28.3558 26.8263 28.4971 26.7524 28.625ZM30 26.75C29.7775 26.75 29.56 26.684 29.375 26.5604C29.19 26.4368 29.0458 26.2611 28.9607 26.0555C28.8755 25.85 28.8532 25.6238 28.8966 25.4055C28.9401 25.1873 29.0472 24.9868 29.2045 24.8295C29.3619 24.6722 29.5623 24.565 29.7806 24.5216C29.9988 24.4782 30.225 24.5005 30.4305 24.5856C30.6361 24.6708 30.8118 24.815 30.9354 25C31.059 25.185 31.125 25.4025 31.125 25.625C31.125 25.9234 31.0065 26.2095 30.7955 26.4205C30.5845 26.6315 30.2984 26.75 30 26.75ZM34.7844 29.0368C34.5917 29.148 34.3703 29.1996 34.1483 29.1851C33.9263 29.1705 33.7136 29.0905 33.537 28.955C33.3605 28.8196 33.2281 28.6348 33.1566 28.4241C33.0851 28.2134 33.0776 27.9862 33.1352 27.7713C33.1928 27.5564 33.3128 27.3634 33.4801 27.2167C33.6474 27.07 33.8545 26.9762 34.0751 26.9471C34.2957 26.9181 34.5199 26.9551 34.7195 27.0535C34.919 27.1519 35.0849 27.3073 35.1962 27.5C35.2701 27.6279 35.318 27.7692 35.3373 27.9157C35.3566 28.0621 35.3468 28.211 35.3086 28.3537C35.2703 28.4964 35.2044 28.6301 35.1144 28.7473C35.0245 28.8646 34.9123 28.9629 34.7844 29.0368Z" fill="#2E65F3"/>
</svg>
