<svg width="64" height="39" viewBox="0 0 64 39" fill="none" xmlns="http://www.w3.org/2000/svg">
<path d="M40.6581 34.5554H23.3506V4.13623H40.6584L40.6581 34.5554Z" fill="white" fill-opacity="0.7"/>
<path d="M24.448 19.3459C24.448 13.1754 27.4022 7.67866 32.0026 4.13633C28.5204 1.45102 24.2134 -0.00638699 19.7789 2.10414e-05C8.85504 2.10414e-05 0 8.66134 0 19.3459C0 30.0305 8.85504 38.6918 19.7789 38.6918C24.2135 38.6983 28.5206 37.2409 32.0029 34.5555C27.4029 31.0138 24.448 25.5167 24.448 19.3459Z" fill="white"/>
<path d="M64.0074 19.3461C64.0074 30.0307 55.1524 38.692 44.2285 38.692C39.7934 38.6984 35.4859 37.241 32.0029 34.5557C36.6045 31.0134 39.5588 25.517 39.5588 19.3461C39.5588 13.1753 36.6045 7.67891 32.0029 4.13658C35.4858 1.45135 39.7932 -0.00603053 44.2282 0.000264448C55.1521 0.000264448 64.0071 8.66158 64.0071 19.3461" fill="white"/>
</svg>
