<svg width="19" height="19" viewBox="0 0 19 19" fill="none" xmlns="http://www.w3.org/2000/svg">
<path d="M4.5498 14.9C4.89568 14.5126 6.51559 12.73 6.99031 12.73H12.0096C12.6975 12.73 14.1018 14.2077 14.4498 14.7286M16.6998 9.5C16.6998 13.4765 13.4763 16.7 9.4998 16.7C5.52335 16.7 2.2998 13.4765 2.2998 9.5C2.2998 5.52355 5.52335 2.3 9.4998 2.3C13.4763 2.3 16.6998 5.52355 16.6998 9.5ZM12.0789 7.04597C12.0789 5.67234 10.9193 4.55 9.50002 4.55C8.08074 4.55 6.92111 5.67234 6.92111 7.04597C6.92111 8.4196 8.08074 9.54194 9.50002 9.54194C10.9193 9.54194 12.0789 8.4196 12.0789 7.04597Z" stroke="white"/>
</svg>
