<svg width="60" height="61" viewBox="0 0 60 61" fill="none" xmlns="http://www.w3.org/2000/svg">
<rect y="0.5" width="60" height="60" rx="20" fill="#F1F4FF"/>
<path d="M39.6213 20.8791C39.0582 20.3174 38.2954 20.002 37.5 20.002C36.7047 20.002 35.9418 20.3174 35.3788 20.8791C35.3691 20.8886 35.3599 20.8985 35.3508 20.9085L30.2038 26.6435L29.341 25.7807C28.9191 25.3588 28.3468 25.1217 27.75 25.1217C27.1533 25.1217 26.581 25.3588 26.159 25.7807L18.9697 32.9701C18.829 33.1107 18.75 33.3015 18.75 33.5004C18.75 33.6994 18.829 33.8901 18.9697 34.0308L26.4697 41.5308C26.6103 41.6714 26.8011 41.7504 27 41.7504C27.1989 41.7504 27.3897 41.6714 27.5304 41.5308L34.7198 34.3414C35.1417 33.9195 35.3787 33.3472 35.3787 32.7504C35.3787 32.1537 35.1417 31.5814 34.7198 31.1594L33.857 30.2967L39.592 25.1496C39.602 25.1406 39.6119 25.1313 39.6214 25.1217C40.1831 24.5586 40.4986 23.7957 40.4986 23.0004C40.4986 22.205 40.1831 21.4421 39.6213 20.8791ZM27 39.9398L25.6761 38.6159L28.07 36.2221C28.2105 36.0814 28.2894 35.8907 28.2893 35.6919C28.2892 35.493 28.2102 35.3024 28.0696 35.1618C27.929 35.0212 27.7384 34.9422 27.5395 34.9421C27.3407 34.942 27.15 35.0209 27.0093 35.1614L24.6154 37.5552L23.0511 35.9909L25.445 33.5971C25.5855 33.4564 25.6644 33.2657 25.6643 33.0669C25.6642 32.868 25.5852 32.6774 25.4446 32.5368C25.304 32.3962 25.1134 32.3172 24.9145 32.3171C24.7157 32.317 24.525 32.3959 24.3843 32.5364L21.9904 34.9302L20.5607 33.5004L24.75 29.3112L31.1893 35.7504L27 39.9398Z" fill="#2E65F3"/>
</svg>
