<svg width="60" height="61" viewBox="0 0 60 61" fill="none" xmlns="http://www.w3.org/2000/svg">
<rect y="0.5" width="60" height="60" rx="20" fill="#F1F4FF"/>
<path d="M38.6221 34.3522L30 39.3817L21.3779 34.3522C21.2061 34.2519 21.0015 34.2241 20.8092 34.2747C20.6168 34.3253 20.4524 34.4503 20.3522 34.6221C20.2519 34.7939 20.2241 34.9985 20.2747 35.1909C20.3253 35.3832 20.4503 35.5476 20.6221 35.6478L29.6221 40.8978C29.7368 40.9647 29.8672 41 30 41C30.1328 41 30.2632 40.9647 30.3779 40.8978L39.3779 35.6478C39.463 35.5982 39.5375 35.5323 39.5971 35.4539C39.6567 35.3755 39.7003 35.2861 39.7253 35.1909C39.7504 35.0956 39.7565 34.9964 39.7432 34.8988C39.7299 34.8012 39.6975 34.7072 39.6478 34.6221C39.5982 34.537 39.5323 34.4625 39.4539 34.4029C39.3755 34.3433 39.2861 34.2998 39.1909 34.2747C39.0956 34.2496 38.9964 34.2436 38.8988 34.2569C38.8012 34.2702 38.7072 34.3026 38.6221 34.3522Z" fill="#2E65F3"/>
<path d="M38.6221 29.8522L30 34.8817L21.3779 29.8522C21.2061 29.7519 21.0015 29.7241 20.8092 29.7747C20.6168 29.8253 20.4524 29.9503 20.3522 30.1221C20.2519 30.2939 20.2241 30.4985 20.2747 30.6909C20.3253 30.8832 20.4503 31.0476 20.6221 31.1478L29.6221 36.3978C29.7368 36.4648 29.8672 36.5 30 36.5C30.1328 36.5 30.2632 36.4648 30.3779 36.3978L39.3779 31.1478C39.5498 31.0476 39.6747 30.8832 39.7253 30.6909C39.7759 30.4985 39.7481 30.2939 39.6478 30.1221C39.5476 29.9503 39.3832 29.8253 39.1909 29.7747C38.9985 29.7241 38.7939 29.7519 38.6221 29.8522Z" fill="#2E65F3"/>
<path d="M20.6221 26.6478L29.6221 31.8978C29.7368 31.9647 29.8672 32 30 32C30.1328 32 30.2632 31.9647 30.3779 31.8978L39.3779 26.6478C39.4911 26.5818 39.5851 26.4872 39.6504 26.3735C39.7156 26.2599 39.75 26.1311 39.75 26C39.75 25.8689 39.7156 25.7401 39.6504 25.6265C39.5851 25.5128 39.4911 25.4182 39.3779 25.3522L30.3779 20.1022C30.2632 20.0353 30.1328 20 30 20C29.8672 20 29.7368 20.0353 29.6221 20.1022L20.6221 25.3522C20.5089 25.4182 20.4149 25.5128 20.3496 25.6265C20.2844 25.7401 20.25 25.8689 20.25 26C20.25 26.1311 20.2844 26.2599 20.3496 26.3735C20.4149 26.4872 20.5089 26.5818 20.6221 26.6478Z" fill="#2E65F3"/>
</svg>
