<svg width="60" height="61" viewBox="0 0 60 61" fill="none" xmlns="http://www.w3.org/2000/svg">
<rect y="0.5" width="60" height="60" rx="20" fill="#F1F4FF"/>
<path d="M39.7512 27.1895L33.3119 20.75C33.0303 20.4692 32.6488 20.3115 32.2512 20.3115C31.8535 20.3115 31.4721 20.4693 31.1905 20.7501L28.8357 23.1049L23.3932 25.1459C23.147 25.2386 22.9294 25.3944 22.7622 25.5976C22.5949 25.8008 22.4839 26.0443 22.4403 26.3038L20.4934 37.9848C20.4803 38.0631 20.4925 38.1436 20.5281 38.2146C20.5638 38.2856 20.6211 38.3435 20.6917 38.3799C20.7623 38.4162 20.8427 38.4292 20.9212 38.4169C20.9997 38.4046 21.0723 38.3677 21.1285 38.3116L26.2926 33.1473C25.9212 32.5175 25.7923 31.7739 25.93 31.0559C26.0677 30.3378 26.4625 29.6947 27.0406 29.247C27.6186 28.7993 28.3401 28.5778 29.0697 28.624C29.7994 28.6703 30.4871 28.9811 31.004 29.4981C31.5209 30.0152 31.8314 30.7031 31.8774 31.4328C31.9233 32.1625 31.7015 32.8838 31.2536 33.4617C30.8057 34.0395 30.1624 34.4342 29.4443 34.5716C28.7262 34.709 27.9826 34.5798 27.353 34.2081L22.1882 39.3731C22.132 39.4293 22.0951 39.5019 22.0829 39.5804C22.0706 39.6589 22.0836 39.7392 22.1199 39.8099C22.1563 39.8805 22.2142 39.9378 22.2852 39.9734C22.3562 40.0091 22.4367 40.0212 22.515 40.0082L34.1975 38.0611C34.457 38.0174 34.7005 37.9064 34.9037 37.7392C35.1069 37.572 35.2626 37.3544 35.3554 37.1082L37.3964 31.6657L39.7511 29.3108C39.8904 29.1716 40.001 29.0062 40.0764 28.8242C40.1518 28.6422 40.1906 28.4472 40.1906 28.2502C40.1906 28.0532 40.1518 27.8581 40.0764 27.6761C40.001 27.4941 39.8905 27.3287 39.7512 27.1895V27.1895ZM36.7512 30.1894L30.3119 23.7501L32.2512 21.8107L38.6905 28.2501L36.7512 30.1894Z" fill="#2E65F3"/>
<path d="M28.875 33.125C29.7034 33.125 30.375 32.4534 30.375 31.625C30.375 30.7966 29.7034 30.125 28.875 30.125C28.0466 30.125 27.375 30.7966 27.375 31.625C27.375 32.4534 28.0466 33.125 28.875 33.125Z" fill="#2E65F3"/>
</svg>
