<svg width="60" height="60" viewBox="0 0 60 60" fill="none" xmlns="http://www.w3.org/2000/svg">
<rect width="60" height="60.0003" rx="20" fill="#F1F4FF"/>
<path d="M39.75 24V22.5C39.7495 22.1023 39.5914 21.721 39.3102 21.4398C39.029 21.1586 38.6477 21.0005 38.25 21H21.75C21.3523 21.0005 20.971 21.1586 20.6898 21.4398C20.4086 21.721 20.2505 22.1023 20.25 22.5V24C20.2505 24.3977 20.4086 24.779 20.6898 25.0602C20.971 25.3414 21.3523 25.4995 21.75 25.5V34.5H21C20.8011 34.5 20.6103 34.579 20.4697 34.7197C20.329 34.8603 20.25 35.0511 20.25 35.25C20.25 35.4489 20.329 35.6397 20.4697 35.7803C20.6103 35.921 20.8011 36 21 36H29.25V37.629C28.7496 37.8059 28.3278 38.1541 28.0593 38.6119C27.7907 39.0697 27.6926 39.6077 27.7824 40.1308C27.8722 40.6539 28.144 41.1285 28.5498 41.4706C28.9556 41.8127 29.4692 42.0003 30 42.0003C30.5308 42.0003 31.0444 41.8127 31.4502 41.4706C31.856 41.1285 32.1278 40.6539 32.2176 40.1308C32.3073 39.6077 32.2093 39.0697 31.9407 38.6119C31.6722 38.1541 31.2504 37.8059 30.75 37.629V36H39C39.1989 36 39.3897 35.921 39.5303 35.7803C39.671 35.6397 39.75 35.4489 39.75 35.25C39.75 35.0511 39.671 34.8603 39.5303 34.7197C39.3897 34.579 39.1989 34.5 39 34.5H38.25V25.5C38.6477 25.4995 39.029 25.3414 39.3102 25.0602C39.5914 24.779 39.7495 24.3977 39.75 24ZM27.75 31.5C27.75 31.6989 27.671 31.8897 27.5303 32.0303C27.3897 32.171 27.1989 32.25 27 32.25C26.8011 32.25 26.6103 32.171 26.4697 32.0303C26.329 31.8897 26.25 31.6989 26.25 31.5V30C26.25 29.8011 26.329 29.6103 26.4697 29.4697C26.6103 29.329 26.8011 29.25 27 29.25C27.1989 29.25 27.3897 29.329 27.5303 29.4697C27.671 29.6103 27.75 29.8011 27.75 30V31.5ZM30 40.5C29.8517 40.5 29.7067 40.456 29.5833 40.3736C29.46 40.2912 29.3639 40.1741 29.3071 40.037C29.2503 39.9 29.2355 39.7492 29.2644 39.6037C29.2934 39.4582 29.3648 39.3246 29.4697 39.2197C29.5746 39.1148 29.7082 39.0434 29.8537 39.0144C29.9992 38.9855 30.15 39.0003 30.287 39.0571C30.4241 39.1139 30.5412 39.21 30.6236 39.3333C30.706 39.4567 30.75 39.6017 30.75 39.75C30.7498 39.9488 30.6707 40.1395 30.5301 40.2801C30.3895 40.4207 30.1988 40.4998 30 40.5ZM30.75 31.5C30.75 31.6989 30.671 31.8897 30.5303 32.0303C30.3897 32.171 30.1989 32.25 30 32.25C29.8011 32.25 29.6103 32.171 29.4697 32.0303C29.329 31.8897 29.25 31.6989 29.25 31.5V29.25C29.25 29.0511 29.329 28.8603 29.4697 28.7197C29.6103 28.579 29.8011 28.5 30 28.5C30.1989 28.5 30.3897 28.579 30.5303 28.7197C30.671 28.8603 30.75 29.0511 30.75 29.25V31.5ZM33.75 31.5C33.75 31.6989 33.671 31.8897 33.5303 32.0303C33.3897 32.171 33.1989 32.25 33 32.25C32.8011 32.25 32.6103 32.171 32.4697 32.0303C32.329 31.8897 32.25 31.6989 32.25 31.5V28.5C32.25 28.3011 32.329 28.1103 32.4697 27.9697C32.6103 27.829 32.8011 27.75 33 27.75C33.1989 27.75 33.3897 27.829 33.5303 27.9697C33.671 28.1103 33.75 28.3011 33.75 28.5V31.5ZM21.75 24V22.5H38.25L38.2509 24H21.75Z" fill="#2E65F3"/>
</svg>
